<svg width="14" height="14" viewBox="0 0 14 14" fill="none" xmlns="http://www.w3.org/2000/svg">
<path d="M6.5625 0.875C3.42822 0.875 0.875 3.42822 0.875 6.5625C0.875 9.69678 3.42822 12.25 6.5625 12.25C9.69678 12.25 12.25 9.69678 12.25 6.5625C12.25 3.42822 9.69678 0.875 6.5625 0.875ZM6.5625 1.75C9.2251 1.75 11.375 3.8999 11.375 6.5625C11.375 9.2251 9.2251 11.375 6.5625 11.375C3.8999 11.375 1.75 9.2251 1.75 6.5625C1.75 3.8999 3.8999 1.75 6.5625 1.75ZM6.125 2.625V7H8.75V6.125H7V2.625H6.125Z" fill="#1C0F13"/>
</svg>
