<svg width="20" height="20" viewBox="0 0 20 20" fill="none" xmlns="http://www.w3.org/2000/svg">
<path d="M3.00781 1.49414L2.11914 2.38281L2.56348 2.82227L3.44727 3.70605L3.88672 4.15039L4.77539 3.26172L4.33105 2.82227L3.44727 1.93848L3.00781 1.49414ZM16.9922 1.49414L16.5527 1.93848L15.2295 3.26172L16.1133 4.15039L16.5527 3.70605L17.876 2.38281L16.9922 1.49414ZM10 2.5C7.24609 2.5 5 4.74609 5 7.5C5 9.22852 5.75684 10.2246 6.36719 11.0742C6.98242 11.9189 7.5 12.6367 7.5 14.375V15.625C7.5 16.4355 8.03223 17.1289 8.75977 17.3828C8.75488 17.4219 8.75 17.4609 8.75 17.5C8.75 18.1885 9.31152 18.75 10 18.75C10.6885 18.75 11.25 18.1885 11.25 17.5C11.25 17.4609 11.25 17.4219 11.2451 17.3828C11.9727 17.124 12.5 16.4355 12.5 15.625V14.375C12.5 12.6367 13.0176 11.9189 13.6328 11.0742C14.2432 10.2246 15 9.22852 15 7.5C15 4.74609 12.7539 2.5 10 2.5ZM10 3.75C12.0801 3.75 13.75 5.41992 13.75 7.5C13.75 8.89648 13.2568 9.46289 12.6172 10.332C12.0654 11.0986 11.5186 12.1777 11.3672 13.75H8.63281C8.48144 12.1777 7.93457 11.0986 7.38281 10.332C6.74316 9.46289 6.25 8.89648 6.25 7.5C6.25 5.41992 7.91992 3.75 10 3.75ZM1.25 7.5V8.75H3.75V7.5H1.25ZM16.25 7.5V8.75H18.75V7.5H16.25ZM3.88672 12.0996L3.44727 12.5439L2.56348 13.4277L2.11914 13.8672L3.00781 14.751L4.33105 13.4277L4.77539 12.9883L3.88672 12.0996ZM16.1133 12.0996L15.2295 12.9883L16.9922 14.751L17.876 13.8672L16.5527 12.5439L16.1133 12.0996ZM8.75 15H11.25V15.625C11.25 15.9766 10.9766 16.25 10.625 16.25H9.375C9.02344 16.25 8.75 15.9766 8.75 15.625V15Z" fill="white"/>
</svg>
