<svg width="20" height="20" viewBox="0 0 20 20" fill="none" xmlns="http://www.w3.org/2000/svg">
<g clip-path="url(#clip0_46_269)">
<path d="M6.2501 3.75V7.5H7.5001V3.75H6.2501ZM3.7501 5V8.75H5.0001V5H3.7501ZM8.7501 5V8.75H10.0001V5H8.7501ZM20.0001 8.75C15.9674 8.75 13.3677 9.83909 13.003 10H0.625104C0.526035 9.99995 0.428374 10.0235 0.340173 10.0686C0.251972 10.1137 0.175759 10.1791 0.117816 10.2595C0.0598727 10.3398 0.0218601 10.4328 0.00691205 10.5307C-0.00803595 10.6287 0.000508831 10.7288 0.0318419 10.8228L0.996197 13.7183C1.25059 14.4833 1.97201 15 2.77598 15H10.9742C11.7788 15 12.4999 14.4824 12.754 13.7183L13.628 11.0962C14.1811 10.8624 16.4351 10 20.0001 10V8.75ZM1.4918 11.25H12.2584L11.5675 13.3228C11.4816 13.5811 11.2471 13.75 10.9742 13.75H2.77598C2.50496 13.75 2.26833 13.5802 2.18272 13.3228L1.4918 11.25Z" fill="#1C0F13" fill-opacity="0.45"/>
</g>
<defs>
<clipPath id="clip0_46_269">
<rect width="20" height="20" fill="white"/>
</clipPath>
</defs>
</svg>
