<svg width="14" height="14" viewBox="0 0 14 14" fill="none" xmlns="http://www.w3.org/2000/svg">
<path d="M6.125 1.75C4.96259 1.75 3.88497 2.12897 3.01465 2.77026H3.01294C1.7163 3.72628 0.875 5.26775 0.875 7C0.875 9.89462 3.23038 12.25 6.125 12.25C7.94922 12.25 9.55869 11.3131 10.5 9.89673V12.25H11.375V6.97607C12.3761 6.76623 13.125 5.84878 13.125 4.77148C13.125 4.15715 12.9079 3.47134 12.5491 2.88647C12.1903 2.30161 11.6584 1.77222 10.9392 1.77222C10.2323 1.77222 9.707 2.28467 9.34814 2.85742C8.45789 2.16397 7.33784 1.75 6.125 1.75ZM6.125 2.625C7.21086 2.625 8.19054 3.02963 8.95508 3.68286C8.82731 4.04799 8.75031 4.42092 8.75 4.77148C8.74906 5.8486 9.49995 6.7646 10.5 6.97607V7C10.5 9.42188 8.54688 11.375 6.125 11.375C3.70312 11.375 1.75 9.42188 1.75 7C1.75 5.55075 2.45085 4.27185 3.53247 3.47437C4.25815 2.93966 5.15241 2.625 6.125 2.625ZM10.9392 2.64722C11.1877 2.64722 11.5284 2.89816 11.8022 3.34448C12.0761 3.79081 12.25 4.38482 12.25 4.77148C12.25 5.5443 11.6592 6.14787 10.9375 6.14722C10.2148 6.14656 9.62432 5.54555 9.625 4.77319C9.62534 4.38646 9.79861 3.79087 10.0728 3.34448C10.3469 2.89809 10.6907 2.64722 10.9392 2.64722ZM5.69946 3.52905C5.67482 3.52926 5.65024 3.53154 5.62598 3.53589C5.04244 3.61982 4.50338 3.84611 4.05029 4.18018C3.186 4.81766 2.625 5.8462 2.625 7C2.625 8.92782 4.19718 10.5 6.125 10.5C7.10139 10.5 7.99051 10.0977 8.62524 9.44897C8.66656 9.40815 8.69934 9.3595 8.72166 9.30588C8.74399 9.25225 8.75541 9.19471 8.75526 9.13663C8.75512 9.07854 8.7434 9.02106 8.72081 8.96755C8.69822 8.91404 8.6652 8.86556 8.62367 8.82494C8.58215 8.78432 8.53295 8.75238 8.47895 8.73098C8.42495 8.70957 8.36723 8.69913 8.30915 8.70027C8.25108 8.70141 8.19381 8.7141 8.14069 8.7376C8.08757 8.7611 8.03966 8.79495 7.99976 8.83716C7.52324 9.32418 6.86186 9.625 6.125 9.625C4.67007 9.625 3.5 8.45493 3.5 7C3.5 6.12905 3.92037 5.3633 4.56982 4.88428C4.90948 4.63384 5.31056 4.4637 5.74902 4.40063C5.85895 4.3867 5.95949 4.33159 6.03036 4.24641C6.10123 4.16124 6.13714 4.05235 6.13085 3.94172C6.12456 3.8311 6.07654 3.72698 5.99647 3.65039C5.9164 3.5738 5.81026 3.53043 5.69946 3.52905Z" fill="white"/>
</svg>
