<svg width="20" height="20" viewBox="0 0 20 20" fill="none" xmlns="http://www.w3.org/2000/svg">
<path d="M7.06055 2.06055L4.375 4.74121L3.4082 3.7793L2.5293 4.6582L4.375 6.50879L7.93945 2.93945L7.06055 2.06055ZM10 3.75V5H18.75V3.75H10ZM7.06055 7.06055L4.375 9.74121L3.4082 8.7793L2.5293 9.6582L4.375 11.5088L7.93945 7.93945L7.06055 7.06055ZM10 8.75V10H18.75V8.75H10ZM7.06055 12.0605L4.375 14.7412L3.4082 13.7744L2.5293 14.6631L4.375 16.5088L7.93945 12.9443L7.06055 12.0605ZM10 13.75V15H18.75V13.75H10Z" fill="#1C0F13" fill-opacity="0.45"/>
</svg>
